<?xml version="1.0" encoding="UTF-8"?>
<svg id="Layer_2" data-name="Layer 2" xmlns="http://www.w3.org/2000/svg" viewBox="0 0 108.21 25.32">
  <defs>
    <style>
      .cls-1 {
        fill: #fff;
      }

      .cls-1, .cls-2 {
        stroke-width: 0px;
      }

      .cls-2 {
        fill: #f15a24;
      }
    </style>
  </defs>
  <g id="Layer_1-2" data-name="Layer 1">
    <g>
      <path class="cls-2" d="m28.3,7.07v-3.02h13.38v3.02h-4.9v13.32h-3.59V7.07h-4.9Z"/>
      <path class="cls-2" d="m42.82,8.56v2.2h.05c.15-.37.36-.71.62-1.02.26-.31.56-.58.89-.8.34-.22.69-.39,1.08-.51s.78-.18,1.19-.18c.21,0,.45.04.71.11v3.02c-.15-.03-.34-.06-.55-.08-.21-.02-.42-.03-.62-.03-.59,0-1.1.1-1.51.3-.41.2-.74.47-1,.81-.25.34-.43.74-.54,1.2-.11.46-.16.95-.16,1.49v5.33h-3.25v-11.83h3.09Z"/>
      <path class="cls-2" d="m51.63,23.91c-.63.41-1.49.62-2.61.62-.34,0-.67-.01-1-.03-.33-.02-.66-.05-1-.08v-2.68c.3.03.62.06.94.09.32.03.64.04.96.02.43-.05.74-.21.95-.5.21-.29.31-.61.31-.96,0-.26-.05-.5-.14-.73l-4.14-11.1h3.45l2.68,8.1h.05l2.59-8.1h3.36l-4.94,13.29c-.35.96-.84,1.65-1.46,2.06Z"/>
      <path class="cls-2" d="m65.47,4.05c1.02,0,1.89.15,2.61.45s1.3.69,1.75,1.18c.45.49.78,1.04.98,1.67.21.63.31,1.27.31,1.94s-.1,1.3-.31,1.93c-.21.63-.53,1.19-.98,1.68-.45.49-1.03.88-1.75,1.18-.72.3-1.59.45-2.61.45h-3.78v5.86h-3.59V4.05h7.37Zm-.98,7.69c.41,0,.81-.03,1.19-.09.38-.06.72-.18,1.01-.35.29-.18.52-.42.7-.74.18-.32.26-.74.26-1.26s-.09-.94-.26-1.26c-.18-.32-.41-.57-.7-.74-.29-.18-.63-.29-1.01-.35s-.78-.09-1.19-.09h-2.79v4.9h2.79Z"/>
      <path class="cls-2" d="m71.74,6.73v-2.68h3.25v2.68h-3.25Zm3.25,1.83v11.83h-3.25v-11.83h3.25Z"/>
      <path class="cls-2" d="m81.6,11.01h-5.7v-2.45h9.98v2.45l-6.15,6.93h6.59v2.45h-10.87v-2.45l6.15-6.93Z"/>
      <path class="cls-2" d="m92.1,11.01h-5.7v-2.45h9.98v2.45l-6.15,6.93h6.59v2.45h-10.87v-2.45l6.15-6.93Z"/>
      <path class="cls-2" d="m97.05,12.2c.05-.76.24-1.4.57-1.9.34-.5.76-.91,1.28-1.21.52-.31,1.1-.52,1.75-.65.65-.13,1.3-.19,1.96-.19.59,0,1.2.04,1.81.13s1.17.25,1.67.49c.5.24.92.58,1.24,1.02.32.43.48,1.01.48,1.73v6.15c0,.53.03,1.04.09,1.53s.17.85.32,1.1h-3.3c-.06-.18-.11-.37-.15-.56-.04-.19-.06-.39-.08-.58-.52.53-1.13.91-1.83,1.12-.7.21-1.42.32-2.15.32-.56,0-1.09-.07-1.58-.21-.49-.14-.92-.35-1.28-.64-.37-.29-.65-.66-.86-1.1-.21-.44-.31-.97-.31-1.58,0-.67.12-1.22.35-1.66.24-.43.54-.78.92-1.04.37-.26.8-.45,1.28-.58.48-.13.96-.23,1.45-.31.49-.08.97-.14,1.44-.18.47-.05.89-.11,1.26-.21.37-.09.66-.23.87-.4.21-.18.31-.43.3-.77,0-.35-.06-.63-.17-.83-.11-.21-.27-.37-.46-.48s-.41-.19-.66-.23-.52-.06-.81-.06c-.64,0-1.14.14-1.51.41-.37.27-.58.73-.64,1.37h-3.25Zm7.5,2.4c-.14.12-.31.22-.51.29-.21.07-.43.13-.66.17-.24.05-.48.08-.74.11-.26.03-.52.07-.78.11-.24.05-.48.11-.72.18-.24.08-.44.18-.62.31-.18.13-.32.29-.42.49-.11.2-.16.45-.16.76s.05.53.16.73c.11.2.25.35.43.47.18.11.4.19.64.24.24.05.5.07.76.07.64,0,1.14-.11,1.49-.32.35-.21.61-.47.78-.77.17-.3.27-.6.31-.9s.06-.55.06-.73v-1.21Z"/>
    </g>
    <path class="cls-2" d="m24.38,14.43c0,6.01-4.87,10.88-10.88,10.88-2.67,0-5.12-.96-7.02-2.56l15.34-15.34c1.6,1.89,2.56,4.34,2.56,7.02Z"/>
    <path class="cls-2" d="m12.96,13.52L4.19,4.75l.24-.24C1.74,6.63,0,9.92,0,13.61s1.6,6.72,4.11,8.84c2.95-2.98,5.9-5.96,8.85-8.93Z"/>
    <path class="cls-2" d="m12.73,0c-2.69,0-5.16.92-7.13,2.46l-.24.24,8.77,8.77,7.4-7.4C19.41,1.58,16.26,0,12.73,0Z"/>
    <circle class="cls-1" cx="6.11" cy="15.67" r=".98"/>
    <circle class="cls-1" cx="15.11" cy="17.64" r=".98"/>
    <circle class="cls-1" cx="14.43" cy="7.7" r=".98"/>
  </g>
</svg>